<?xml version="1.0" encoding="UTF-8"?>
<svg xmlns="http://www.w3.org/2000/svg" width="600" height="186" viewBox="0 0 600 186" fill="none">
  <g clip-path="url(#clip0_222_2)">
    <path d="M124.571 18H77.4289C49.1422 18 26 41.1422 26 69.4289V116.571C26 144.858 49.1422 168 77.4289 168H124.571C152.858 168 176 144.858 176 116.571V69.4289C176 41.1422 152.858 18 124.571 18ZM131 114C131 120.696 121.196 126.211 114.5 126.211H87.5C80.75 126.211 71 120.75 71 114V113.358H131V114ZM131 99.4289H87.5C80.8039 99.4289 71 93.9117 71 87.218V86.5758H114.5C121.196 86.5758 131 92.093 131 98.7867V99.4289ZM131 72.6398H71V71.9977C71 65.3016 80.75 59.7867 87.5 59.7867H114.5C121.25 59.7867 131 65.2477 131 71.9977V72.6398Z" fill="#333333"></path>
  </g>
  <path d="M217.43 120.83C214.442 120.83 211.703 120.083 209.213 118.589C206.778 117.04 204.814 115.02 203.32 112.53C201.881 109.985 201.162 107.19 201.162 104.147V100.329C201.162 100.052 201.3 99.914 201.577 99.914H210.873C211.094 99.914 211.205 100.052 211.205 100.329V104.147C211.205 105.973 211.814 107.55 213.031 108.878C214.248 110.151 215.715 110.787 217.43 110.787C219.145 110.787 220.612 110.123 221.829 108.795C223.046 107.467 223.655 105.918 223.655 104.147C223.655 102.1 222.327 100.329 219.671 98.835C218.786 98.337 217.402 97.5623 215.521 96.511C213.64 95.4597 211.869 94.4637 210.209 93.523C207.166 91.7523 204.897 89.539 203.403 86.883C201.964 84.1717 201.245 81.1283 201.245 77.753C201.245 74.6543 201.992 71.8877 203.486 69.453C204.98 66.963 206.944 64.9987 209.379 63.56C211.869 62.1213 214.553 61.402 217.43 61.402C220.363 61.402 223.046 62.149 225.481 63.643C227.971 65.0817 229.935 67.046 231.374 69.536C232.868 71.9707 233.615 74.7097 233.615 77.753V84.559C233.615 84.7803 233.504 84.891 233.283 84.891H223.987C223.766 84.891 223.655 84.7803 223.655 84.559L223.572 77.753C223.572 75.8163 222.963 74.2393 221.746 73.022C220.529 71.8047 219.09 71.196 217.43 71.196C215.715 71.196 214.248 71.86 213.031 73.188C211.814 74.4607 211.205 75.9823 211.205 77.753C211.205 79.579 211.592 81.1007 212.367 82.318C213.142 83.5353 214.553 84.6973 216.6 85.804C216.877 85.97 217.402 86.2743 218.177 86.717C219.007 87.1043 219.892 87.5747 220.833 88.128C221.774 88.626 222.604 89.0687 223.323 89.456C224.098 89.8433 224.568 90.0923 224.734 90.203C227.501 91.7523 229.686 93.6613 231.291 95.93C232.896 98.1433 233.698 100.882 233.698 104.147C233.698 107.301 232.951 110.151 231.457 112.696C230.018 115.186 228.054 117.178 225.564 118.672C223.129 120.111 220.418 120.83 217.43 120.83ZM251.515 120C251.294 120 251.183 119.862 251.183 119.585V72.275H240.393C240.116 72.275 239.978 72.1367 239.978 71.86L240.061 62.564C240.061 62.3427 240.172 62.232 240.393 62.232H271.933C272.21 62.232 272.348 62.3427 272.348 62.564V71.86C272.348 72.1367 272.237 72.275 272.016 72.275H261.143L261.226 119.585C261.226 119.862 261.115 120 260.894 120H251.515ZM274.777 119.585L285.069 62.564C285.124 62.3427 285.262 62.232 285.484 62.232H297.519C297.74 62.232 297.878 62.3427 297.934 62.564L307.811 119.585C307.866 119.862 307.755 120 307.479 120H298.266C298.044 120 297.906 119.862 297.851 119.585L296.938 113.526H285.65L284.737 119.585C284.681 119.862 284.543 120 284.322 120H275.109C274.887 120 274.777 119.862 274.777 119.585ZM287.31 104.645H295.278L291.875 81.322L291.377 78.251L291.045 81.322L287.31 104.645ZM330.658 120.83C327.615 120.83 324.848 120.083 322.358 118.589C319.924 117.04 317.987 114.992 316.548 112.447C315.11 109.902 314.39 107.052 314.39 103.898L314.473 78.002C314.473 74.9587 315.165 72.192 316.548 69.702C317.987 67.1567 319.924 65.137 322.358 63.643C324.848 62.0937 327.615 61.319 330.658 61.319C333.702 61.319 336.441 62.066 338.875 63.56C341.31 65.054 343.247 67.0737 344.685 69.619C346.124 72.109 346.843 74.9033 346.843 78.002V81.82C346.843 82.0413 346.733 82.152 346.511 82.152H337.215C336.994 82.152 336.883 82.0413 336.883 81.82V78.002C336.883 76.176 336.275 74.599 335.057 73.271C333.895 71.943 332.429 71.279 330.658 71.279C328.666 71.279 327.145 71.9707 326.093 73.354C325.042 74.682 324.516 76.2313 324.516 78.002V103.898C324.516 105.945 325.097 107.605 326.259 108.878C327.477 110.151 328.943 110.787 330.658 110.787C332.429 110.787 333.895 110.095 335.057 108.712C336.275 107.273 336.883 105.669 336.883 103.898V100.08C336.883 99.8587 336.994 99.748 337.215 99.748H346.594C346.816 99.748 346.926 99.8587 346.926 100.08V103.898C346.926 107.052 346.179 109.902 344.685 112.447C343.247 114.992 341.31 117.04 338.875 118.589C336.441 120.083 333.702 120.83 330.658 120.83ZM357.478 120C357.256 120 357.146 119.862 357.146 119.585L357.312 62.647C357.312 62.3703 357.422 62.232 357.644 62.232H366.94C367.161 62.232 367.272 62.3703 367.272 62.647V82.318L380.303 62.564C380.469 62.3427 380.662 62.232 380.884 62.232H390.429C390.65 62.232 390.705 62.3427 390.595 62.564L376.236 85.472L392.338 119.668C392.448 119.889 392.31 120 391.923 120H381.797C381.52 120 381.354 119.889 381.299 119.668L370.094 95.266L367.189 99.831V119.585C367.189 119.862 367.078 120 366.857 120H357.478ZM400.617 120C400.34 120 400.202 119.862 400.202 119.585L400.368 62.564C400.368 62.3427 400.479 62.232 400.7 62.232L416.221 62.149C419.264 62.0937 422.031 62.813 424.521 64.307C427.066 65.801 429.086 67.8207 430.58 70.366C432.074 72.856 432.821 75.6227 432.821 78.666V102.487C432.821 105.696 432.046 108.629 430.497 111.285C428.948 113.886 426.873 115.961 424.272 117.51C421.671 119.059 418.739 119.862 415.474 119.917L400.617 120ZM410.328 109.791H415.474C417.521 109.791 419.237 109.072 420.62 107.633C422.059 106.194 422.778 104.479 422.778 102.487V78.583C422.778 76.8123 422.114 75.2907 420.786 74.018C419.513 72.69 417.992 72.0537 416.221 72.109L410.411 72.192L410.328 109.791ZM443.916 120C443.64 120 443.501 119.862 443.501 119.585L443.584 62.564C443.584 62.3427 443.695 62.232 443.916 62.232H453.212C453.434 62.232 453.544 62.3427 453.544 62.564L453.627 119.585C453.627 119.862 453.517 120 453.295 120H443.916ZM462.256 119.585L472.548 62.564C472.603 62.3427 472.742 62.232 472.963 62.232H484.998C485.219 62.232 485.358 62.3427 485.413 62.564L495.29 119.585C495.345 119.862 495.235 120 494.958 120H485.745C485.524 120 485.385 119.862 485.33 119.585L484.417 113.526H473.129L472.216 119.585C472.161 119.862 472.022 120 471.801 120H462.588C462.367 120 462.256 119.862 462.256 119.585ZM474.789 104.645H482.757L479.354 81.322L478.856 78.251L478.524 81.322L474.789 104.645ZM504.981 120C504.76 120 504.649 119.862 504.649 119.585L504.815 62.564C504.815 62.3427 504.926 62.232 505.147 62.232H521.913C524.901 62.232 527.64 62.979 530.13 64.473C532.675 65.9117 534.695 67.876 536.189 70.366C537.683 72.8007 538.43 75.5673 538.43 78.666C538.43 80.7133 538.126 82.567 537.517 84.227C536.908 85.8317 536.189 87.215 535.359 88.377C534.529 89.4837 533.782 90.3137 533.118 90.867C536.106 94.187 537.6 98.088 537.6 102.57L537.683 119.585C537.683 119.862 537.545 120 537.268 120H527.889C527.668 120 527.557 119.917 527.557 119.751V102.57C527.557 100.578 526.838 98.8627 525.399 97.424C524.016 95.93 522.3 95.183 520.253 95.183H514.775L514.692 119.585C514.692 119.862 514.581 120 514.36 120H504.981ZM514.775 85.223H521.913C523.628 85.223 525.15 84.5867 526.478 83.314C527.806 82.0413 528.47 80.492 528.47 78.666C528.47 76.8953 527.806 75.3737 526.478 74.101C525.205 72.8283 523.684 72.192 521.913 72.192H514.775V85.223ZM554.046 120C553.88 120 553.797 119.889 553.797 119.668L553.88 96.096L542.758 62.564C542.703 62.3427 542.786 62.232 543.007 62.232H552.22C552.497 62.232 552.663 62.3427 552.718 62.564L558.86 84.891L565.085 62.564C565.141 62.3427 565.279 62.232 565.5 62.232H574.796C575.018 62.232 575.101 62.3427 575.045 62.564L563.84 95.764L563.923 119.668C563.923 119.889 563.813 120 563.591 120H554.046Z" fill="#333333"></path>
  <defs>
    <clipPath id="clip0_222_2">
      <rect width="150" height="150" fill="white" transform="translate(26 18)"></rect>
    </clipPath>
  </defs>
</svg>
